<?xml version="1.0" encoding="UTF-8" standalone="no"?>
<!-- Created with Inkscape (http://www.inkscape.org/) -->

<svg
   width="117.31573mm"
   height="85.597015mm"
   viewBox="0 0 117.31573 85.597015"
   version="1.1"
   id="svg1"
   xml:space="preserve"
   inkscape:version="1.4 (e7c3feb100, 2024-10-09)"
   sodipodi:docname="hydrogen_tank.svg"
   xmlns:inkscape="http://www.inkscape.org/namespaces/inkscape"
   xmlns:sodipodi="http://sodipodi.sourceforge.net/DTD/sodipodi-0.dtd"
   xmlns="http://www.w3.org/2000/svg"
   xmlns:svg="http://www.w3.org/2000/svg"><sodipodi:namedview
     id="namedview1"
     pagecolor="#ffffff"
     bordercolor="#000000"
     borderopacity="0.25"
     inkscape:showpageshadow="2"
     inkscape:pageopacity="0.0"
     inkscape:pagecheckerboard="0"
     inkscape:deskcolor="#d1d1d1"
     inkscape:document-units="mm"
     inkscape:zoom="0.91757856"
     inkscape:cx="754.70377"
     inkscape:cy="585.7809"
     inkscape:window-width="3800"
     inkscape:window-height="2090"
     inkscape:window-x="0"
     inkscape:window-y="0"
     inkscape:window-maximized="0"
     inkscape:current-layer="layer1" /><defs
     id="defs1" /><g
     inkscape:label="Layer 1"
     inkscape:groupmode="layer"
     id="layer1"
     transform="translate(-49.924167,-24.387928)"><path
       style="fill:#fcfcfd;stroke-width:1"
       d="m 80.456672,72.837135 c 0,-20.316809 0,-20.316809 27.472918,-20.316809 27.47292,0 27.47292,0 27.47292,20.316809 0,20.316817 0,20.316817 -27.47292,20.316817 -27.472918,0 -27.472918,0 -27.472918,-20.316817 z"
       id="path15" /><path
       style="fill:#b4c7de"
       d="m 84.425212,109.84297 c -6.11187,-0.12442 -14.38833,-0.40951 -18.39213,-0.63354 -4.00379,-0.22404 -8.23051,-0.53806 -9.3927,-0.69784 -1.1622,-0.15978 -2.22619,-0.40063 -2.36444,-0.53521 -0.15844,-0.15424 -0.14455,-0.3515 0.0376,-0.53364 0.15892,-0.15891 2.05797,-0.45432 4.22011,-0.65645 2.16214,-0.20213 5.33573,-0.44139 7.05242,-0.53168 3.12125,-0.16418 3.12125,-0.16418 3.0427,-1.65866 -0.0786,-1.49447 -0.0786,-1.49447 -1.99439,-1.68557 -1.05371,-0.1051 -2.80313,-0.48894 -3.88758,-0.85298 -1.08446,-0.36404 -2.82563,-1.17102 -3.86928,-1.79328 -1.16165,-0.692628 -2.65914,-1.939208 -3.86138,-3.214388 -1.47604,-1.56561 -2.25355,-2.68285 -3.1302,-4.49792 -0.69697,-1.44306 -1.33966,-3.28426 -1.59697,-4.57508 -0.36559,-1.833961 -0.415,-3.711807 -0.32724,-12.43542 0.0875,-8.693645 0.17318,-10.519612 0.5569,-11.862757 0.24944,-0.873125 0.84938,-2.420938 1.33321,-3.439584 0.48383,-1.018645 1.37454,-2.506927 1.97935,-3.307291 0.60481,-0.800365 1.8305,-2.074981 2.72375,-2.83248 0.89326,-0.757499 2.41175,-1.791169 3.37443,-2.297044 0.96269,-0.505875 2.64136,-1.187368 3.73039,-1.514429 1.89504,-0.569126 2.47923,-0.599152 13.60714,-0.699392 11.62709,-0.104737 11.62709,-0.104737 12.38966,-0.746399 0.41942,-0.352914 1.02129,-0.701562 1.33749,-0.774775 0.31621,-0.07321 1.8769,-0.162474 3.46819,-0.19836 2.89327,-0.06525 2.89327,-0.06525 3.43959,-1.101023 0.30047,-0.569677 0.87685,-1.279859 1.28084,-1.578183 0.54664,-0.403662 1.291098,-0.578628 2.910408,-0.684015 2.17589,-0.14161 2.17589,-0.14161 2.25237,-3.448901 0.0421,-1.819011 0.01,-3.575183 -0.0712,-3.902605 -0.14566,-0.587243 -0.20664,-0.595312 -4.498928,-0.595312 -4.08049,0 -4.3689,0.03293 -4.63448,0.529166 -0.22441,0.419305 -0.55399,0.529167 -1.5875,0.529167 -1.01873,0 -1.36427,-0.112049 -1.57819,-0.511772 -0.15064,-0.281475 -0.27389,-1.701721 -0.27389,-3.156102 0,-2.051157 0.0933,-2.737594 0.41577,-3.060102 0.2371,-0.237103 0.8632,-0.415774 1.45696,-0.415774 0.78084,0 1.18499,0.165395 1.61631,0.661458 0.56487,0.649658 0.64475,0.661458 4.47727,0.661458 3.194618,0 3.977518,-0.07539 4.317908,-0.415773 0.22868,-0.228676 0.41578,-0.814251 0.41578,-1.301278 0,-0.487026 -0.0723,-1.073834 -0.1606,-1.304017 -0.11547,-0.3009 -0.51619,-0.418515 -1.4259,-0.418515 -0.84204,0 -1.46982,-0.165611 -1.87669,-0.495078 -0.4425,-0.358315 -0.6114,-0.769725 -0.6114,-1.489297 0,-0.719572 0.1689,-1.130983 0.6114,-1.489298 0.56224,-0.455276 1.16313,-0.495077 7.47439,-0.495077 5.63429,0 7.00275,0.07227 7.6436,0.403669 0.42934,0.222018 0.79913,0.608972 0.82176,0.859896 0.0226,0.250925 0.0178,0.753883 -0.0106,1.117685 -0.0285,0.363802 -0.29832,0.869818 -0.59963,1.124479 -0.35501,0.300055 -0.99316,0.463021 -1.81312,0.463021 -0.90971,0 -1.31043,0.117615 -1.4259,0.418515 -0.0883,0.230183 -0.1606,2.051839 -0.1606,4.048125 0,2.470252 0.10142,3.731025 0.3175,3.94711 0.21855,0.218544 1.54668,0.3175 4.26129,0.3175 3.82069,0 3.96832,-0.02065 4.72988,-0.661458 0.49784,-0.418902 1.11273,-0.661458 1.67684,-0.661458 0.62053,0 1.01568,0.178385 1.30262,0.588038 0.30301,0.432616 0.41187,1.256229 0.41187,3.116129 0,1.8599 -0.10886,2.683512 -0.41187,3.116128 -0.28694,0.409653 -0.68209,0.588038 -1.30262,0.588038 -0.56411,0 -1.179,-0.242555 -1.67684,-0.661458 -0.76492,-0.643641 -0.89718,-0.661458 -4.91005,-0.661458 -4.12395,0 -4.12395,0 -4.28997,0.661458 -0.0913,0.363802 -0.0945,0.946467 -0.007,1.29481 0.14824,0.590652 0.30059,0.639783 2.25978,0.728755 1.61069,0.07315 2.27474,0.224059 2.84628,0.646857 0.41001,0.3033 1.02228,1.046922 1.3606,1.652495 0.61514,1.101042 0.61514,1.101042 3.65542,1.101042 1.73313,0 3.28875,0.127971 3.6182,0.297646 0.31785,0.163706 0.81604,0.513171 1.10708,0.776588 0.49011,0.443593 1.38839,0.48625 12.17084,0.577958 9.95374,0.08466 11.87183,0.164253 13.22916,0.548958 0.87313,0.247468 2.59953,0.942631 3.83646,1.544807 1.8339,0.892801 2.69341,1.539318 4.65719,3.5031 1.96221,1.962202 2.61126,2.824768 3.50438,4.657193 0.60288,1.236928 1.30511,3.022865 1.56052,3.968751 0.40726,1.508275 0.46437,3.053974 0.46437,12.567709 0,8.195789 -0.0871,11.203686 -0.35624,12.303126 -0.19594,0.80036 -0.87128,2.53204 -1.50077,3.84816 -0.81141,1.69648 -1.65558,2.94494 -2.90041,4.28947 -0.96574,1.04309 -2.59809,2.45642 -3.62745,3.14074 -1.02937,0.684308 -2.88032,1.591908 -4.11323,2.016878 -1.27376,0.43905 -3.08651,0.83656 -4.19834,0.92065 -1.95669,0.14798 -1.95669,0.14798 -1.95669,1.66778 0,1.5198 0,1.5198 3.50573,1.70142 1.92815,0.0999 5.09836,0.34253 7.04491,0.53921 1.94655,0.19668 3.66701,0.48542 3.82323,0.64165 0.18374,0.18374 0.19331,0.37478 0.0271,0.541 -0.14132,0.14132 -1.08787,0.37377 -2.10344,0.51655 -1.01557,0.14278 -3.87055,0.38545 -6.3444,0.53926 -2.47385,0.15381 -7.71261,0.39828 -11.64167,0.54327 -3.92906,0.14499 -16.1925,0.31263 -27.25208,0.37253 -11.05959,0.0599 -25.108958,0.007 -31.220838,-0.11728 z m 15.47813,-4.36564 c 9.531608,-0.0812 22.271298,-0.0388 28.310418,0.0942 6.03911,0.13297 11.0697,0.16124 11.17908,0.0628 0.10938,-0.0984 -0.15589,-0.73834 -0.58949,-1.42205 -0.78836,-1.24311 -0.78836,-1.24311 -30.16876,-1.24311 -29.380408,0 -29.380408,0 -30.160018,1.22933 -0.42879,0.67613 -0.70968,1.3425 -0.6242,1.48081 0.0909,0.1471 1.10335,0.18799 2.43909,0.0985 1.25602,-0.0841 10.08226,-0.21935 19.61388,-0.30052 z M 129.97039,89.607132 c 0.0839,-0.21861 0.0779,-0.69486 -0.0134,-1.05833 -0.15839,-0.6311 -0.25504,-0.66087 -2.1452,-0.66087 -1.77089,0 -1.97933,-0.0531 -1.97933,-0.50465 0,-0.27755 0.58364,-1.029388 1.29697,-1.67074 0.71334,-0.641351 1.54633,-1.575119 1.8511,-2.075039 0.30476,-0.499921 0.55456,-1.349829 0.5551,-1.888685 5.5e-4,-0.538856 -0.13851,-1.285921 -0.30902,-1.660144 -0.17051,-0.374224 -0.73127,-0.940755 -1.24613,-1.258959 -0.72444,-0.447728 -1.35733,-0.580873 -2.79884,-0.588814 -1.5116,-0.0083 -2.08716,0.115396 -3.05335,0.656358 -0.72075,0.403543 -1.19063,0.853892 -1.19063,1.141152 0,0.260993 0.32584,0.672234 0.72407,0.91387 0.67678,0.410646 0.77448,0.409557 1.49603,-0.01667 0.42458,-0.250806 1.16094,-0.45601 1.63635,-0.45601 0.47541,0 1.08212,0.197047 1.34824,0.437882 0.26612,0.240835 0.48386,0.796517 0.48386,1.234848 0,0.666469 -0.45535,1.233791 -2.78089,3.464722 -2.41835,2.319959 -2.78054,2.779859 -2.77813,3.527649 0.003,0.8599 0.003,0.8599 4.3767,0.8599 3.64675,0 4.39928,-0.0661 4.52645,-0.39747 z m -27.21907,-8.466076 c 0.0598,-3.848749 0.1339,-4.54565 0.51359,-4.828646 0.3148,-0.234631 1.76893,-0.330729 5.00448,-0.330729 3.79334,0 4.63069,0.06996 4.97651,0.415773 0.3453,0.345299 0.41577,1.176607 0.41577,4.904374 0,4.488599 0,4.488599 2.57969,4.412872 2.57969,-0.07573 2.57969,-0.07573 2.57969,-11.585103 0,-11.509375 0,-11.509375 -2.57969,-11.585102 -2.57969,-0.07573 -2.57969,-0.07573 -2.57969,4.246562 0,3.009003 -0.0965,4.418759 -0.3175,4.63979 -0.22355,0.223556 -1.73449,0.3175 -5.10646,0.3175 -3.37196,0 -4.8829,-0.09394 -5.10645,-0.3175 -0.22103,-0.221031 -0.3175,-1.630787 -0.3175,-4.63979 0,-4.322289 0,-4.322289 -2.57969,-4.246562 -2.579688,0.07573 -2.579688,0.07573 -2.648758,11.320519 -0.038,6.184636 -0.0102,11.398115 0.0617,11.585509 0.0966,0.251873 0.77008,0.320865 2.582608,0.264584 2.45186,-0.07613 2.45186,-0.07613 2.52172,-4.574051 z"
       id="path14" /><path
       style="fill:#a0afde"
       d="m 86.012712,109.29001 c -5.82083,-0.0985 -13.44083,-0.31134 -16.93333,-0.47298 -3.4925,-0.16165 -7.83828,-0.42358 -9.65729,-0.58208 -1.81901,-0.15851 -3.40435,-0.38006 -3.52298,-0.49235 -0.11863,-0.11229 0.71481,-0.28179 1.85208,-0.37667 1.13728,-0.0949 4.0081,-0.28594 6.3796,-0.42457 2.37151,-0.13862 4.42534,-0.32219 4.56407,-0.40793 0.13872,-0.0857 0.25223,-0.92277 0.25223,-1.86007 0,-0.9373 -0.0893,-1.70785 -0.19844,-1.71234 -0.10914,-0.004 -1.0914,-0.12387 -2.18281,-0.26528 -1.09141,-0.14141 -2.88812,-0.5579 -3.99268,-0.92554 -1.10457,-0.36764 -2.90952,-1.26007 -4.011,-1.983178 -1.10148,-0.72311 -2.73517,-2.11412 -3.63041,-3.09112 -1.05489,-1.15123 -2.04313,-2.61794 -2.80811,-4.1677 -0.66399,-1.34517 -1.35918,-3.25943 -1.58909,-4.37569 -0.33956,-1.648637 -0.39154,-3.75258 -0.30726,-12.435415 0.0855,-8.804953 0.17205,-10.701081 0.54971,-12.038542 0.24655,-0.873125 0.94,-2.591771 1.54101,-3.819214 0.85142,-1.738827 1.56666,-2.708734 3.23852,-4.391587 1.34782,-1.356682 2.83326,-2.54071 3.99451,-3.18399 1.0168,-0.563266 2.80274,-1.319076 3.96875,-1.67958 2.09464,-0.647619 2.25911,-0.65666 13.7471,-0.755732 11.62709,-0.100271 11.62709,-0.100271 12.38966,-0.741932 0.41942,-0.352914 1.02129,-0.696883 1.33749,-0.764376 0.31621,-0.06749 2.06321,-0.200347 3.88222,-0.295232 1.81901,-0.09488 7.950728,-0.175344 13.626038,-0.178798 5.67531,-0.0035 11.86656,0.07518 13.75833,0.174741 1.89177,0.09956 3.6983,0.235242 4.01451,0.301512 0.3162,0.06627 0.91924,0.410223 1.34009,0.764339 0.76517,0.643849 0.76517,0.643849 12.38966,0.74339 9.9364,0.08509 11.85503,0.164881 13.21199,0.549484 0.87313,0.247468 2.59953,0.94537 3.83646,1.550893 1.79755,0.879968 2.70456,1.556556 4.51882,3.370808 1.81425,1.814252 2.49084,2.721267 3.3708,4.518815 0.60553,1.236928 1.30267,2.963334 1.54922,3.836459 0.37765,1.337461 0.46424,3.233589 0.54971,12.038542 0.0843,8.682835 0.0323,10.786778 -0.30726,12.435415 -0.22991,1.11626 -0.9251,3.03052 -1.58909,4.37569 -0.76202,1.54376 -1.7532,3.01646 -2.79654,4.15508 -0.88889,0.97006 -2.44129,2.3123 -3.44979,2.98274 -1.00849,0.670448 -2.80069,1.571928 -3.98266,2.003288 -1.18198,0.43137 -2.88137,0.84842 -3.77644,0.92677 -0.89507,0.0784 -1.89528,0.19663 -2.22271,0.26283 -0.54409,0.11 -0.59531,0.26859 -0.59531,1.84341 0,1.14431 0.11109,1.75942 0.33073,1.83133 0.1819,0.0596 2.35479,0.23729 4.82865,0.39497 2.47385,0.15769 5.30158,0.36045 6.28385,0.45058 0.98227,0.0901 1.78594,0.24698 1.78594,0.34854 0,0.10156 -1.51805,0.3229 -3.37344,0.49187 -1.85539,0.16897 -5.81659,0.42654 -8.80266,0.57237 -2.98608,0.14584 -12.39202,0.3857 -20.90209,0.53303 -8.51007,0.14734 -19.16379,0.24003 -23.67494,0.20598 -4.51114,-0.034 -12.964578,-0.14248 -18.785418,-0.24098 z m 22.621878,-3.23302 c 12.87859,-0.008 25.1718,0.0809 27.31823,0.19654 3.6333,0.19574 3.9026,0.178 3.9026,-0.25703 0,-0.25701 -0.30139,-0.98157 -0.66976,-1.61014 -0.36836,-0.62857 -0.89632,-1.26411 -1.17323,-1.41231 -0.33288,-0.17816 -10.28658,-0.26945 -29.37784,-0.26945 -19.091258,0 -29.044958,0.0913 -29.377838,0.26945 -0.27691,0.1482 -0.80487,0.78374 -1.17323,1.41231 -0.36837,0.62857 -0.66976,1.35313 -0.66976,1.61014 0,0.43441 0.27448,0.45346 3.9026,0.27074 2.14643,-0.1081 14.43964,-0.20271 27.318228,-0.21025 z m 21.3796,-17.044578 c -0.0806,-1.25677 -0.0806,-1.25677 -1.99887,-1.33451 -1.41151,-0.0572 -1.91823,-0.17364 -1.91823,-0.44079 0,-0.19968 0.49427,-0.754515 1.09837,-1.232973 0.6041,-0.478459 1.43754,-1.404743 1.85208,-2.058409 0.51008,-0.804303 0.7534,-1.535228 0.75273,-2.261162 -5.5e-4,-0.589973 -0.22461,-1.439395 -0.49793,-1.887605 -0.27332,-0.448209 -0.95748,-1.036111 -1.52037,-1.306448 -0.67497,-0.324172 -1.60896,-0.491132 -2.74321,-0.490376 -1.13699,7.58e-4 -2.03361,0.162898 -2.64584,0.478458 -0.50932,0.262522 -1.1344,0.660002 -1.38906,0.883289 -0.25466,0.223286 -0.46302,0.598572 -0.46302,0.833968 0,0.235396 0.42285,0.655711 0.93966,0.934034 0.88978,0.479178 0.97974,0.482372 1.69447,0.06017 0.41515,-0.245231 1.15911,-0.445875 1.65326,-0.445875 0.49414,0 1.04132,0.142875 1.21594,0.3175 0.17463,0.174625 0.3175,0.659982 0.3175,1.07857 0,0.620711 -0.51235,1.252949 -2.77812,3.428167 -2.38496,2.289642 -2.77813,2.786042 -2.77813,3.507542 0,0.46224 0.0794,0.91982 0.17639,1.01683 0.097,0.097 2.18713,0.17639 4.64471,0.17639 4.46831,0 4.46831,0 4.38767,-1.25677 z m -26.99551,-7.727456 c 0.0517,-3.289016 0.16597,-4.6779 0.39687,-4.824594 0.17834,-0.113297 2.3635,-0.207818 4.85591,-0.210046 3.43878,-0.0031 4.6017,0.08033 4.82204,0.345822 0.17861,0.21521 0.31837,2.073724 0.36313,4.828646 0.0728,4.478772 0.0728,4.478772 2.71858,4.478772 2.64584,0 2.64584,0 2.81802,-2.248958 0.0947,-1.236927 0.18236,-6.297084 0.19482,-11.244793 0.0125,-4.947708 -0.0502,-9.267724 -0.13921,-9.600036 -0.15682,-0.585364 -0.24538,-0.601862 -2.84066,-0.529166 -2.6788,0.07503 -2.6788,0.07503 -2.81109,4.572952 -0.13229,4.497917 -0.13229,4.497917 -5.15938,4.497917 -5.02708,0 -5.02708,0 -5.15937,-4.497917 -0.13229,-4.497917 -0.13229,-4.497917 -2.91042,-4.497917 -2.778118,0 -2.778118,0 -2.851628,11.244793 -0.0404,6.184635 -0.007,11.516811 0.0735,11.849279 0.14274,0.58698 0.22533,0.602306 2.851628,0.529167 2.70464,-0.07532 2.70464,-0.07532 2.77727,-4.693921 z m 19.52154,-39.228815 c -0.27911,-0.398476 -0.41062,-1.18743 -0.40798,-2.447396 0.002,-1.022647 0.15373,-2.157014 0.33686,-2.520817 0.21793,-0.432946 0.60055,-0.692151 1.10753,-0.750302 0.51366,-0.05892 0.89037,0.06952 1.11835,0.381299 0.21719,0.297022 0.34378,1.286063 0.34378,2.685926 0,1.21868 -0.12325,2.44608 -0.2739,2.727555 -0.17439,0.325866 -0.55339,0.511773 -1.04333,0.511773 -0.49518,0 -0.91624,-0.209601 -1.18131,-0.588038 z M 92.391022,36.669414 c -0.0883,-0.230183 -0.1606,-1.411071 -0.1606,-2.624194 0,-1.213124 0.0723,-2.394011 0.1606,-2.624194 0.10675,-0.278194 0.49171,-0.418515 1.14816,-0.418515 0.8015,0 1.0454,0.126964 1.29461,0.673908 0.16888,0.37065 0.30705,1.509571 0.30705,2.530936 0,1.021366 -0.12325,2.087326 -0.27389,2.368801 -0.19813,0.370205 -0.55625,0.511772 -1.29461,0.511772 -0.68669,0 -1.07328,-0.13696 -1.18132,-0.418514 z"
       id="path13" /><path
       style="fill:#7c84e1"
       d="m 69.799712,107.31981 c -0.48966,-0.34297 -0.58864,-0.6639 -0.59165,-1.91823 -0.002,-0.8285 -0.0721,-1.7615 -0.15575,-2.07336 -0.12936,-0.48214 -0.41591,-0.59392 -1.91461,-0.74686 -0.96937,-0.0989 -2.47686,-0.36008 -3.34999,-0.58033 -0.87312,-0.22025 -2.54,-0.88815 -3.70416,-1.48421 -1.59233,-0.815288 -2.67841,-1.646318 -4.38431,-3.354728 -1.75278,-1.75535 -2.51412,-2.76342 -3.35322,-4.43989 -0.59707,-1.19291 -1.28159,-3.04997 -1.52117,-4.12681 -0.37472,-1.684285 -0.42327,-3.48817 -0.34745,-12.908199 0.0881,-10.950305 0.0881,-10.950305 0.79673,-12.960178 0.38973,-1.10543 1.15413,-2.772306 1.69867,-3.704167 0.54454,-0.931861 1.65285,-2.396748 2.46291,-3.255305 0.81006,-0.858556 2.24674,-2.057843 3.19263,-2.665082 0.94588,-0.60724 2.3151,-1.353023 3.04271,-1.657297 0.7276,-0.304273 2.27393,-0.748974 3.43628,-0.988223 1.77188,-0.36471 3.86983,-0.431474 12.98381,-0.413188 10.82273,0.02172 10.8727,0.0193 11.38039,-0.550399 0.28046,-0.314714 0.89306,-0.73437 1.36133,-0.932567 0.68866,-0.291479 4.0913,-0.360358 17.801728,-0.360358 13.71042,0 17.11307,0.06888 17.80173,0.360358 0.46827,0.198197 1.07891,0.615694 1.35699,0.92777 0.50197,0.563348 0.58442,0.567325 11.50937,0.555198 8.90447,-0.0099 11.38237,0.06545 12.98816,0.394898 1.12696,0.231206 3.07043,0.937668 4.49792,1.635015 2.07713,1.014708 2.88211,1.600465 4.63631,3.373686 1.52731,1.543871 2.42925,2.739529 3.21534,4.262451 0.60092,1.164166 1.30597,2.77151 1.56679,3.571875 0.41805,1.282903 0.48589,2.778015 0.57289,12.627027 0.0948,10.729911 0.0765,11.252725 -0.46248,13.217245 -0.30863,1.12498 -0.99911,2.88423 -1.53439,3.90943 -0.66451,1.27272 -1.68818,2.58309 -3.22708,4.13085 -1.70199,1.71181 -2.7721,2.53219 -4.37051,3.350588 -1.16416,0.59606 -2.83104,1.26269 -3.70416,1.48139 -0.87313,0.2187 -2.36141,0.48143 -3.3073,0.58384 -0.94588,0.1024 -1.80726,0.3207 -1.91417,0.4851 -0.10692,0.1644 -0.19621,1.08413 -0.19844,2.04384 -0.003,1.35091 -0.11331,1.84381 -0.48791,2.18281 -0.38687,0.35012 -1.05218,0.43788 -3.31932,0.43788 -2.65771,0 -2.87617,-0.0407 -3.48489,-0.64943 -0.35719,-0.35718 -0.64943,-0.83915 -0.64943,-1.07104 0,-0.23189 -0.41524,-1.07074 -0.92276,-1.86411 -0.92275,-1.4425 -0.92275,-1.4425 -30.56266,-1.4425 -29.639908,0 -29.639908,0 -30.562658,1.4425 -0.50752,0.79337 -0.92276,1.63222 -0.92276,1.86411 0,0.23189 -0.29224,0.71386 -0.64943,1.07104 -0.60564,0.60564 -0.83361,0.64943 -3.38071,0.64943 -2.0438,0 -2.87929,-0.10367 -3.31932,-0.41187 z M 130.01686,90.305052 c 0.22481,-0.14256 0.31842,-0.63255 0.26458,-1.38501 -0.0833,-1.1644 -0.0833,-1.1644 -1.84784,-1.29669 -0.97049,-0.0728 -1.85588,-0.22394 -1.96754,-0.33595 -0.11165,-0.112 0.52889,-0.915397 1.42344,-1.785316 1.16904,-1.136854 1.70983,-1.891328 1.92293,-2.68275 0.16307,-0.605594 0.22459,-1.484341 0.13672,-1.952771 -0.0879,-0.468431 -0.45467,-1.169886 -0.8151,-1.558789 -0.36042,-0.388904 -1.0683,-0.879653 -1.57306,-1.090555 -0.50475,-0.210901 -1.55864,-0.383457 -2.34196,-0.383457 -0.78332,0 -1.82895,0.135506 -2.3236,0.301123 -0.49466,0.165618 -1.28633,0.588396 -1.75928,0.939507 -0.47294,0.351111 -0.85989,0.853904 -0.85989,1.117318 0,0.296624 0.44667,0.715897 1.17343,1.101438 1.08145,0.573709 1.21107,0.589414 1.65364,0.200354 0.26412,-0.232182 0.74811,-0.503787 1.07553,-0.603566 0.32742,-0.09978 0.83356,-0.105798 1.12476,-0.01338 0.2912,0.09242 0.65257,0.398101 0.80306,0.679288 0.19282,0.36029 0.18292,0.687028 -0.0335,1.10656 -0.16894,0.327422 -1.48455,1.726407 -2.92358,3.108855 -2.19763,2.111221 -2.6158,2.642711 -2.61257,3.320521 0.002,0.44384 0.14672,0.94985 0.32135,1.12448 0.22093,0.22093 1.60912,0.31627 4.56406,0.31345 2.33561,-0.002 4.40312,-0.10333 4.59446,-0.22466 z m -27.08971,-4.420395 c 0.34527,-0.345272 0.41577,-1.176277 0.41577,-4.90076 0,-4.484987 0,-4.484987 4.82865,-4.412872 4.82864,0.07211 4.82864,0.07211 4.8985,4.570031 0.0598,3.848749 0.1339,4.54565 0.51359,4.828646 0.26702,0.199017 1.27348,0.330729 2.52723,0.330729 1.14592,0 2.31379,-0.123251 2.59526,-0.273892 0.49417,-0.26447 0.51177,-0.677647 0.51177,-12.010235 0,-10.457934 -0.0456,-11.753836 -0.41851,-11.896942 -0.23018,-0.08833 -1.45653,-0.160599 -2.72521,-0.160599 -1.44132,0 -2.42581,0.119113 -2.62419,0.3175 -0.22098,0.220973 -0.3175,1.628658 -0.3175,4.630209 0,4.312708 0,4.312708 -4.8948,4.312708 -4.89479,0 -4.89479,0 -4.89479,-3.951526 0,-2.173339 -0.1177,-4.261113 -0.26156,-4.639497 -0.26103,-0.686556 -0.26716,-0.687817 -2.97657,-0.612537 -2.714988,0.07543 -2.714988,0.07543 -2.783898,11.964366 -0.0541,9.335642 0.003,11.934397 0.26459,12.100637 0.18342,0.116438 1.36678,0.213528 2.629688,0.215757 1.73873,0.0031 2.39715,-0.09689 2.71198,-0.411723 z"
       id="path12" /><path
       style="fill:#6271fc"
       d="m 69.790732,106.92763 c -0.48689,-0.45361 -0.57906,-0.82811 -0.57906,-2.35295 0,-1.27382 -0.10576,-1.85405 -0.35539,-1.94984 -0.19547,-0.075 -1.05868,-0.21792 -1.91823,-0.31757 -0.85956,-0.0997 -2.27721,-0.35809 -3.15034,-0.5743 -0.87312,-0.21621 -2.53981,-0.88971 -3.70374,-1.49667 -1.49416,-0.779178 -2.69968,-1.688878 -4.10104,-3.094728 -1.09164,-1.09514 -2.38018,-2.66264 -2.86343,-3.48334 -0.48324,-0.82071 -1.18022,-2.35944 -1.54884,-3.4194 -0.4872,-1.40097 -0.73227,-2.83394 -0.89748,-5.247907 -0.12499,-1.826386 -0.22992,-5.523359 -0.23317,-8.215494 -0.003,-2.692136 0.10903,-6.577799 0.24951,-8.634807 0.19789,-2.897591 0.40981,-4.168017 0.94084,-5.640168 0.37698,-1.045085 1.11178,-2.636297 1.63289,-3.536028 0.5211,-0.89973 1.85871,-2.530523 2.97245,-3.623983 1.39637,-1.37095 2.63645,-2.295543 3.99475,-2.97847 1.08337,-0.544697 2.92226,-1.233356 4.08643,-1.530352 1.97561,-0.504005 2.87019,-0.53863 13.4236,-0.519556 11.18806,0.02022 11.31184,0.01457 11.77396,-0.537272 0.25686,-0.30674 0.78853,-0.726925 1.18149,-0.933745 0.59626,-0.313827 3.564,-0.376038 17.938658,-0.376038 14.37466,0 17.34239,0.06221 17.93866,0.376038 0.39296,0.20682 0.92253,0.624551 1.17682,0.92829 0.45578,0.544391 0.6215,0.55204 11.64167,0.537277 7.13258,-0.0096 11.70607,0.09037 12.63452,0.276042 0.80036,0.160059 2.22911,0.608065 3.175,0.995568 0.94588,0.387503 2.25557,1.001773 2.91041,1.365044 0.65485,0.363272 2.08603,1.558102 3.1804,2.65518 1.32109,1.324347 2.32608,2.639006 2.99048,3.911944 0.55039,1.054492 1.23787,2.602304 1.52774,3.439584 0.38019,1.098164 0.60629,2.812428 0.81148,6.152535 0.16046,2.612185 0.21605,7.513099 0.12753,11.244792 -0.12765,5.381377 -0.25566,7.000036 -0.6866,8.682026 -0.29133,1.13709 -0.89165,2.74653 -1.33403,3.57653 -0.44239,0.83 -1.33926,2.19063 -1.99304,3.02362 -0.65379,0.833 -1.87234,2.0587 -2.70789,2.72379 -0.83556,0.66509 -2.18055,1.54901 -2.98887,1.964268 -0.80833,0.41525 -2.07864,0.95419 -2.82292,1.19763 -0.74429,0.24344 -2.40465,0.58089 -3.6897,0.74988 -2.33645,0.30726 -2.33645,0.30726 -2.48399,2.39026 -0.11493,1.62266 -0.25767,2.16352 -0.64588,2.44739 -0.33933,0.24813 -1.2898,0.3644 -2.97871,0.3644 -1.3642,0 -2.69845,-0.11671 -2.96499,-0.25936 -0.26654,-0.14265 -0.92532,-1.06538 -1.46395,-2.05052 -0.53863,-0.98514 -1.16462,-1.99952 -1.39108,-2.25418 -0.38749,-0.43576 -2.1535,-0.46302 -29.9906,-0.46302 -29.578868,0 -29.578868,0 -30.224188,0.85989 -0.35493,0.47295 -0.95614,1.4807 -1.33603,2.23946 -0.37988,0.75876 -0.92115,1.5029 -1.20282,1.65365 -0.28168,0.15074 -1.6286,0.27408 -2.99318,0.27408 -2.13113,0 -2.56271,-0.0761 -3.0601,-0.53947 z M 130.43441,90.115252 c 0.0883,-0.23018 0.1606,-0.80168 0.1606,-1.27 0,-0.46832 -0.14288,-0.99436 -0.3175,-1.16899 -0.17975,-0.17975 -1.0407,-0.3175 -1.98438,-0.3175 -0.91678,0 -1.66687,-0.0938 -1.66687,-0.20838 0,-0.11461 0.60465,-0.799221 1.34367,-1.521355 0.73902,-0.722134 1.52392,-1.655732 1.74422,-2.074663 0.22029,-0.41893 0.40818,-1.267687 0.41753,-1.886125 0.0108,-0.71673 -0.1914,-1.46163 -0.55776,-2.054411 -0.31611,-0.511488 -1.01936,-1.149815 -1.56277,-1.418504 -0.6994,-0.345819 -1.56989,-0.487359 -2.97993,-0.484533 -1.69244,0.0034 -2.17899,0.113629 -3.23628,0.733243 -0.6844,0.401087 -1.36562,0.955812 -1.51382,1.232721 -0.14819,0.276909 -0.26945,0.628355 -0.26945,0.780991 0,0.152637 0.57516,0.568974 1.27812,0.925194 1.27543,0.646304 1.27976,0.646597 2.05053,0.138492 0.42482,-0.28005 1.08524,-0.509965 1.4676,-0.510924 0.38237,-9.59e-4 0.84215,0.175304 1.02174,0.391695 0.17958,0.216392 0.25753,0.66834 0.1732,1.004328 -0.0843,0.335989 -1.34778,1.715759 -2.80767,3.066156 -2.56268,2.370475 -2.65435,2.494175 -2.65435,3.581785 0,0.61958 0.0794,1.20589 0.17639,1.3029 0.097,0.097 2.28693,0.17639 4.86648,0.17639 4.03268,0 4.71261,-0.0587 4.8507,-0.41851 z m -27.09149,-8.577321 c 0.13229,-4.630209 0.13229,-4.630209 4.79846,-4.702337 4.66617,-0.07213 4.66617,-0.07213 4.84711,0.648779 0.0995,0.396499 0.0981,2.283997 -0.003,4.19444 -0.12997,2.452519 -0.0938,3.642268 0.12314,4.047576 0.28627,0.534892 0.50315,0.574042 3.18002,0.574042 2.37554,0 2.9006,-0.07244 3.0334,-0.418514 0.0883,-0.230183 0.1606,-5.651264 0.1606,-12.046847 0,-10.827508 -0.0319,-11.641113 -0.46302,-11.81393 -0.25467,-0.102079 -1.57383,-0.187639 -2.93147,-0.190133 -2.08609,-0.0038 -2.52311,0.07015 -2.82131,0.47765 -0.27101,0.370343 -0.31867,1.297567 -0.20547,3.997526 0.0811,1.933436 0.0678,3.832548 -0.0295,4.220247 -0.17692,0.704907 -0.17692,0.704907 -4.86671,0.632683 -4.68979,-0.07222 -4.68979,-0.07222 -4.75977,-4.43785 -0.0597,-3.724155 -0.13517,-4.414221 -0.51359,-4.696354 -0.26547,-0.197921 -1.26636,-0.330729 -2.49248,-0.330729 -1.126878,0 -2.354278,0.116115 -2.727548,0.258035 -0.67869,0.258034 -0.67869,0.258034 -0.67869,11.884611 0,6.394617 0.0737,11.818674 0.16381,12.053461 0.13963,0.363869 0.59856,0.415885 3.108858,0.352369 2.94504,-0.07452 2.94504,-0.07452 3.07733,-4.704725 z"
       id="path11" /><path
       style="fill:#5655fc"
       d="m 69.790732,106.92763 c -0.48827,-0.4549 -0.57906,-0.82745 -0.57906,-2.37621 0,-1.68829 -0.0481,-1.84767 -0.59531,-1.97204 -0.32742,-0.0744 -1.42875,-0.26095 -2.4474,-0.41453 -1.01864,-0.15357 -2.39888,-0.44015 -3.06718,-0.63685 -0.66831,-0.1967 -1.73987,-0.6245 -2.38125,-0.95067 -0.64138,-0.32618 -1.83665,-1.047388 -2.65615,-1.602698 -0.8195,-0.55532 -2.06966,-1.66079 -2.77813,-2.45661 -0.70847,-0.79581 -1.6835,-2.10057 -2.16675,-2.89946 -0.48324,-0.79889 -1.19761,-2.3258 -1.5875,-3.39314 -0.70887,-1.94062 -0.70887,-1.94062 -0.70887,-11.068741 0,-8.985817 0.01,-9.150366 0.6188,-10.554681 0.34033,-0.784606 1.09384,-2.034762 1.67447,-2.778125 0.58061,-0.743364 1.84997,-1.982884 2.82078,-2.75449 0.97081,-0.771606 2.3009,-1.677794 2.95574,-2.013751 0.65484,-0.335956 1.96453,-0.860027 2.91042,-1.164602 0.94588,-0.304574 2.5947,-0.670173 3.66404,-0.812443 1.06934,-0.14227 2.02184,-0.336715 2.11667,-0.432101 0.0948,-0.09539 0.17241,-1.943002 0.17241,-4.105814 0,-2.6094 0.10231,-4.034719 0.3041,-4.236556 0.16725,-0.167294 0.55122,-0.225738 0.85326,-0.129874 0.52082,0.165302 0.55291,0.388555 0.62194,4.325762 0.0728,4.151465 0.0728,4.151465 37.114448,4.151465 37.04167,0 37.04167,0 37.11446,-4.151465 0.0659,-3.757516 0.11883,-4.16608 0.55804,-4.305479 0.26689,-0.08471 0.68062,-0.07904 0.9194,0.01259 0.3761,0.144324 0.43415,0.703787 0.43415,4.184412 0,4.017813 0,4.017813 3.9026,4.437768 2.66007,0.286248 4.61864,0.658665 6.15156,1.169705 1.43358,0.477922 3.0815,1.306402 4.54523,2.285093 1.26295,0.844438 2.64409,1.979895 3.06919,2.523237 0.4251,0.543342 1.2062,1.609924 1.73577,2.370182 0.52957,0.760257 1.08029,1.891351 1.22382,2.513541 0.14354,0.622191 0.26389,4.773382 0.26744,9.22487 0.006,7.207398 -0.0508,8.317387 -0.5162,10.137237 -0.28747,1.12399 -0.88462,2.72271 -1.327,3.55271 -0.44239,0.82999 -1.33926,2.19062 -1.99304,3.02361 -0.65379,0.833 -1.87234,2.0587 -2.70789,2.72379 -0.83556,0.66509 -2.18055,1.54901 -2.98887,1.964268 -0.80833,0.41525 -2.07864,0.95419 -2.82292,1.19763 -0.74429,0.24344 -2.40465,0.58089 -3.6897,0.74988 -2.33645,0.30726 -2.33645,0.30726 -2.48399,2.39026 -0.11493,1.62266 -0.25767,2.16352 -0.64588,2.44739 -0.33933,0.24813 -1.2898,0.3644 -2.97871,0.3644 -1.3642,0 -2.69845,-0.11671 -2.96499,-0.25936 -0.26654,-0.14265 -0.92532,-1.06538 -1.46395,-2.05052 -0.53863,-0.98514 -1.16462,-1.99952 -1.39108,-2.25418 -0.38749,-0.43576 -2.1535,-0.46302 -29.9906,-0.46302 -29.578868,0 -29.578868,0 -30.224188,0.85989 -0.35493,0.47295 -0.95614,1.4807 -1.33603,2.23946 -0.37988,0.75876 -0.92115,1.5029 -1.20282,1.65365 -0.28168,0.15074 -1.6286,0.27408 -2.99318,0.27408 -2.13113,0 -2.56271,-0.0761 -3.0601,-0.53947 z M 130.53202,90.335332 c 0.10175,-0.25467 0.17562,-0.98061 0.16416,-1.61321 -0.0123,-0.6788 -0.17284,-1.24643 -0.39174,-1.38501 -0.20399,-0.12916 -0.99597,-0.23665 -1.75995,-0.23888 -0.76399,-0.002 -1.38907,-0.0713 -1.38907,-0.153424 0,-0.08215 0.37721,-0.466768 0.83823,-0.854695 0.46103,-0.387927 1.1754,-1.236988 1.5875,-1.886802 0.55746,-0.87902 0.74927,-1.510252 0.74927,-2.465736 0,-0.706341 -0.17679,-1.626144 -0.39288,-2.044007 -0.21608,-0.417864 -0.75663,-1.01876 -1.2012,-1.335325 -0.44458,-0.316566 -1.5477,-0.701259 -2.45139,-0.854874 -1.35189,-0.229804 -1.90985,-0.201343 -3.14852,0.160607 -0.92105,0.269139 -1.8711,0.784764 -2.44739,1.328276 -0.94195,0.88837 -0.94195,0.88837 -0.94195,-7.757406 0,-6.543427 -0.0812,-8.75683 -0.33395,-9.102475 -0.28877,-0.394918 -0.74512,-0.446499 -3.37343,-0.381299 -3.0395,0.0754 -3.0395,0.0754 -3.11189,4.639462 -0.0724,4.564063 -0.0724,4.564063 -4.69635,4.564063 -4.62396,0 -4.62396,0 -4.62396,-4.312709 0,-3.001551 -0.0965,-4.409235 -0.3175,-4.630208 -0.20913,-0.209123 -1.32839,-0.3175 -3.27899,-0.3175 -2.456408,0 -2.988868,0.07138 -3.122078,0.418514 -0.0883,0.230184 -0.1606,5.595824 -0.1606,11.923645 0,7.424803 0.0971,11.686632 0.27389,12.016903 0.24475,0.457318 0.57695,0.511773 3.122088,0.511773 1.86248,0 2.95807,-0.109882 3.16569,-0.3175 0.2225,-0.222508 0.3175,-1.688843 0.3175,-4.90104 0,-4.58354 0,-4.58354 4.56406,-4.511146 4.56406,0.07239 4.56406,0.07239 4.69635,4.834894 0.13229,4.7625 0.13229,4.7625 3.17179,4.8379 2.62831,0.0652 3.08466,0.01362 3.37343,-0.381299 0.21251,-0.290618 0.33395,-1.356427 0.33395,-2.930824 0,-2.474125 0,-2.474125 1.14772,-1.801514 0.63125,0.369936 1.34982,0.672612 1.59681,0.672612 0.247,0 0.73486,-0.187245 1.08414,-0.4161 0.34927,-0.228855 0.97016,-0.377683 1.37975,-0.330729 0.54231,0.06217 0.76804,0.249875 0.83056,0.690657 0.0673,0.474641 -0.51803,1.181285 -2.71198,3.273914 -2.78023,2.651842 -2.79783,2.676472 -2.79783,3.914682 0,0.68533 0.0794,1.32542 0.17639,1.42244 0.097,0.097 2.36293,0.17639 5.03538,0.17639 4.38076,0 4.87721,-0.0456 5.04399,-0.46302 z M 91.436672,49.81353 c -1.45521,-0.157893 -1.45521,-0.157893 -0.6844,-0.679648 0.74718,-0.505766 1.2953,-0.521983 17.885378,-0.529167 14.28303,-0.0062 17.23066,0.0547 17.81618,0.368027 0.38588,0.206492 0.70159,0.528986 0.70159,0.716654 0,0.275356 -3.30666,0.335503 -17.13177,0.311621 -9.42247,-0.01628 -17.786608,-0.100646 -18.586978,-0.187487 z"
       id="path10" /><path
       style="fill:#4646cc"
       d="m 69.790732,106.92763 c -0.48827,-0.4549 -0.57906,-0.82745 -0.57906,-2.37621 0,-1.68829 -0.0481,-1.84767 -0.59531,-1.97204 -0.32742,-0.0744 -1.42875,-0.26095 -2.4474,-0.41453 -1.01864,-0.15357 -2.39888,-0.44015 -3.06718,-0.63685 -0.66831,-0.1967 -1.73987,-0.6245 -2.38125,-0.95067 -0.64138,-0.32618 -1.83665,-1.047388 -2.65615,-1.602698 -0.8195,-0.55532 -2.06966,-1.66079 -2.77813,-2.45661 -0.70847,-0.79581 -1.6835,-2.10057 -2.16675,-2.89946 -0.48324,-0.79889 -1.18569,-2.3258 -1.561,-3.39314 -0.52366,-1.48922 -0.70431,-2.58682 -0.77666,-4.718741 -0.0943,-2.778125 -0.0943,-2.778125 0.4144,-1.719792 0.27978,0.582084 1.14372,1.886711 1.91987,2.899171 0.77615,1.012462 2.30415,2.523972 3.39556,3.358912 1.48524,1.13623 2.58334,1.72059 4.36563,2.32319 1.30968,0.44282 3.31269,0.94831 4.45112,1.12331 1.75863,0.27034 2.10614,0.26087 2.31105,-0.063 0.13996,-0.22119 0.24288,-9.341877 0.24523,-21.730666 0.003,-14.06946 0.0951,-21.405749 0.27101,-21.514475 0.14682,-0.09074 0.50331,-0.08996 0.7922,0.0017 0.51757,0.164271 0.52625,0.482923 0.59295,21.779059 0.0677,21.612352 0.0677,21.612352 37.109348,21.612352 37.04167,0 37.04167,0 37.10936,-21.612352 0.0677,-21.612349 0.0677,-21.612349 0.62195,-21.788264 0.30484,-0.09675 0.64767,-0.07479 0.76183,0.04881 0.11417,0.123596 0.27901,3.201283 0.36631,6.839304 0.0873,3.638021 0.16051,13.371381 0.16267,21.629689 0.004,15.015113 0.004,15.015113 2.8482,15.009383 1.80066,-0.004 3.67856,-0.19024 5.11807,-0.50862 1.25059,-0.27659 2.87067,-0.79083 3.60018,-1.14276 0.72952,-0.35193 2.04485,-1.07631 2.92297,-1.60974 0.87812,-0.53343 2.29413,-1.72285 3.14669,-2.64317 0.85256,-0.920322 1.75531,-2.080422 2.00612,-2.578004 0.2508,-0.497581 0.60738,-1.26188 0.79239,-1.698443 0.3182,-0.750822 0.34074,-0.686672 0.41673,1.186161 0.047,1.158008 -0.0973,2.778456 -0.34764,3.903556 -0.23538,1.058 -0.8328,2.72688 -1.3276,3.70863 -0.4948,0.98175 -1.44006,2.46863 -2.10058,3.30418 -0.66051,0.83555 -1.88457,2.06335 -2.72012,2.72844 -0.83556,0.66509 -2.18055,1.54901 -2.98887,1.964268 -0.80833,0.41525 -2.07864,0.95419 -2.82292,1.19763 -0.74429,0.24344 -2.40465,0.58089 -3.6897,0.74988 -2.33645,0.30726 -2.33645,0.30726 -2.48399,2.39026 -0.11493,1.62266 -0.25767,2.16352 -0.64588,2.44739 -0.33933,0.24813 -1.2898,0.3644 -2.97871,0.3644 -1.3642,0 -2.69845,-0.11671 -2.96499,-0.25936 -0.26654,-0.14265 -0.92532,-1.06538 -1.46395,-2.05052 -0.53863,-0.98514 -1.16462,-1.99952 -1.39108,-2.25418 -0.38749,-0.43576 -2.1535,-0.46302 -29.9906,-0.46302 -29.578868,0 -29.578868,0 -30.224188,0.85989 -0.35493,0.47295 -0.95614,1.4807 -1.33603,2.23946 -0.37988,0.75876 -0.92115,1.5029 -1.20282,1.65365 -0.28168,0.15074 -1.6286,0.27408 -2.99318,0.27408 -2.13113,0 -2.56271,-0.0761 -3.0601,-0.53947 z"
       id="path9" /><path
       style="fill:#3738a1"
       d="m 69.793752,106.88502 c -0.18801,-0.18801 -0.3175,-1.09264 -0.3175,-2.2181 0,-1.61695 0.072,-1.91944 0.4826,-2.0268 0.26543,-0.0694 2.22996,-0.0669 4.36563,0.006 2.13566,0.0725 3.88302,0.21333 3.88302,0.31294 0,0.0996 -0.37536,0.88687 -0.83413,1.74946 -0.45878,0.86258 -1.01301,1.7767 -1.23164,2.03136 -0.3323,0.38708 -0.85942,0.46302 -3.21398,0.46302 -1.83783,0 -2.92682,-0.11033 -3.134,-0.3175 z m 71.334368,-0.14552 c -0.21826,-0.25466 -0.77249,-1.13236 -1.23164,-1.95044 -0.45914,-0.81808 -0.83481,-1.62175 -0.83481,-1.78594 0,-0.19813 0.75319,-0.29852 2.23965,-0.29852 2.04967,0 2.26729,-0.0505 2.5655,-0.59531 0.24947,-0.45578 0.35223,-6.598108 0.43838,-26.205071 0.0829,-18.852886 0.1913,-25.583511 0.41107,-25.510288 0.21733,0.07241 0.31831,5.59905 0.37124,20.318088 0.04,11.120241 0.15905,22.778473 0.26458,25.907163 0.19188,5.688548 0.19188,5.688548 1.25021,5.820838 1.05833,0.13229 1.05833,0.13229 1.13656,2.07499 0.0485,1.2045 -0.0392,2.08421 -0.23083,2.31511 -0.23053,0.27777 -1.02993,0.3724 -3.14608,0.3724 -2.37436,0 -2.90173,-0.0755 -3.23383,-0.46302 z m -73.011708,-4.49792 c -0.0203,-0.10914 -0.006,-11.624578 0.0319,-25.58987 0.0378,-13.965287 0.0946,-25.567427 0.12619,-25.782534 0.0316,-0.215107 0.18312,-0.433006 0.33676,-0.484222 0.19406,-0.06468 0.32588,7.525145 0.43172,24.856492 0.0838,13.722286 0.22808,25.455624 0.32063,26.074094 0.16134,1.07821 0.1399,1.12448 -0.52098,1.12448 -0.37909,0 -0.70587,-0.0893 -0.72618,-0.19844 z"
       id="path8" /></g></svg>
